<svg id="圖層_1" data-name="圖層 1" xmlns="http://www.w3.org/2000/svg" viewBox="0 0 752.81 767.8"><defs><style>.cls-1{fill:#61ba78;}.cls-2{fill:#48b063;}.cls-3{fill:#e94335;}.cls-4{fill:#34a753;}.cls-5{fill:#4284f3;}.cls-6{fill:#fabb05;}.cls-7{fill:#9dc0f8;}.cls-8{fill:#fbc423;}.cls-9{fill:#f08077;}.cls-10{fill:#ee6d61;}.cls-11{fill:#eb574a;}.cls-12{fill:#fce295;}.cls-13{fill:#c2d7fb;}.cls-14{fill:#fcd974;}.cls-15{fill:#b9d1fa;}.cls-16{fill:#dce8fc;}.cls-17{fill:#cfead6;}.cls-18{fill:#54b56e;}</style></defs><path class="cls-1" d="M1443.29,597.93c2.09-2,4.65-.58,7-1q.52.3.36.63c-.1.22-.21.34-.32.34Z" transform="translate(-1075.38 169.88)"/><path class="cls-2" d="M1450.29,597.93c0-.33,0-.65,0-1,2.35.31,4.91-.93,7,1Z" transform="translate(-1075.38 169.88)"/><path class="cls-3" d="M1486.28-169.88c6.76,2.41,13.93,2,20.9,2.8q103.66,12.5,185.5,77.26c7,5.59,13.66,11.69,20.58,17.44,2.23,1.85,2.67,3,.29,5.36Q1661.13-14.85,1609,37.62c-2.9,2.92-4.17,1.41-6.28-.5-31.52-28.47-68.35-46-110.37-51.77-63.35-8.66-120.62,6.67-171,46.2-35.17,27.6-60.14,62.77-75.37,104.83-.56,1.56-1.3,3.05-2,4.58-3.94-.4-6.35-3.43-9.15-5.61Q1177.4,90.67,1119.8,46.14c-1.56-1.22-3.31-2.29-3.87-4.4,2.88-8.58,7.88-16.08,12.39-23.8a376,376,0,0,1,68.82-85.78,386.45,386.45,0,0,1,176.1-93.58c19-4.38,38.14-7.67,57.7-8,.82,0,1.68.15,2.35-.51h10c2.26,1.1,4.66.26,7,.52,2.33-.26,4.74.58,7-.52h14a13,13,0,0,0,8,0Z" transform="translate(-1075.38 169.88)"/><path class="cls-4" d="M1244,287.37c6.2,16.15,12.85,32.1,22.07,46.83,37,59.17,89.21,97.1,158.47,108.15,57.2,9.13,111.66-.72,161.32-32.08,1-.62,2-1.11,3.06-1.65,2.3-.32,3.7,1.34,5.23,2.52q45.78,35.4,91.46,70.95c8.13,6.34,16.41,12.49,24.44,19,1.53,1.23,3.37,2.26,3.55,4.56-1.87,3.92-5.57,6.14-8.67,8.76A349.6,349.6,0,0,1,1558.17,588c-22.51,5.4-45.29,9.28-68.55,9.42-.81,0-1.67-.14-2.34.52h-14a5.39,5.39,0,0,0-5,0h-11c-2.26-1.1-4.66-.26-7-.52-2.33.26-4.74-.58-7,.52h-5c-1.59-1-3.37-.28-5-.52-28.74-.19-56.51-6.23-83.87-14.33-50.18-14.85-95.28-39.37-135.52-72.73a381.62,381.62,0,0,1-87.95-104.5c-3.63-6.32-7.76-12.4-10-19.45.31-1.62,1.57-2.48,2.75-3.39,40.48-31.07,80.56-62.64,121-93.74C1240.93,288.32,1242,286.7,1244,287.37Z" transform="translate(-1075.38 169.88)"/><path class="cls-5" d="M1713,504.88l-124.07-96.26c14.75-10.67,28.56-22.34,40.1-36.54a178.52,178.52,0,0,0,35.8-73.91c1-4.34.07-5.32-4.27-5.32q-97.47.18-194.94.07c-7.24,0-6.29.92-6.3-6.42,0-45.65,0-91.31-.12-137,0-4.38,1-5.5,5.48-5.5q175.44.21,350.89,0c3.69,0,5.41.51,6.1,4.79,2.63,16.46,4.42,33,5.54,49.59.1,1.53-.75,3.37,1,4.57v2c-1,2.18-.27,4.5-.52,6.75v31.85c-.13,39.49-7.49,77.73-19.81,115.14a352.23,352.23,0,0,1-60.51,111.88,328.19,328.19,0,0,1-29.45,31.92C1716.57,503.84,1715.43,505.89,1713,504.88Z" transform="translate(-1075.38 169.88)"/><path class="cls-6" d="M1244,287.37l-127.16,98.68c-2.8-.47-3.41-3-4.37-5-17-35.79-28.89-73.14-34.51-112.44-1.36-9.52-1.22-19.12-2.55-28.61v-5a7.62,7.62,0,0,0,0-6v-2a17,17,0,0,0,0-9v-8a16.93,16.93,0,0,0,0-9v-5a7.62,7.62,0,0,0,0-6v-2c1.33-9.35,1.15-18.82,2.5-28.19a379.62,379.62,0,0,1,30.2-103.22c1.65-3.64,3-7.41,5-10.9.88-1.56,1.5-3.43,3.72-3.65Q1134,55.5,1151.16,68.91q41.86,32.6,83.75,65.17c3,2.33,6.07,4.59,9.1,6.88-3.92,14.23-7.83,28.43-9.83,43.12-4.52,33.18-1.39,65.64,8.39,97.56C1243.14,283.52,1243.51,285.46,1244,287.37Z" transform="translate(-1075.38 169.88)"/><path class="cls-7" d="M1827.33,234.06V211c.32-.4.6-.38.87.05v23C1827.92,234.46,1827.63,234.46,1827.33,234.06Z" transform="translate(-1075.38 169.88)"/><path class="cls-8" d="M1075.38,201a9,9,0,0,1,0,9Z" transform="translate(-1075.38 169.88)"/><path class="cls-8" d="M1075.38,218a9,9,0,0,1,0,9Z" transform="translate(-1075.38 169.88)"/><path class="cls-9" d="M1479.28-169.88c-2.67,1.66-5.33,1.39-8,0Z" transform="translate(-1075.38 169.88)"/><path class="cls-10" d="M1450.24-168.93c-2.31-.37-4.86,1-7-.95h7c.33.23.43.44.31.65S1450.36-168.93,1450.24-168.93Z" transform="translate(-1075.38 169.88)"/><path class="cls-11" d="M1450.24-168.93c0-.31,0-.63,0-.95h7C1455.15-168,1452.59-169.21,1450.24-168.93Z" transform="translate(-1075.38 169.88)"/><path class="cls-12" d="M1075.38,190c1.71,2,1.42,4,0,6Z" transform="translate(-1075.38 169.88)"/><path class="cls-13" d="M1828.19,211l-.87-.05c.19-2-1.09-4.21.87-5.94Z" transform="translate(-1075.38 169.88)"/><path class="cls-14" d="M1075.38,229c1.4,2,1.73,4,0,6Z" transform="translate(-1075.38 169.88)"/><path class="cls-15" d="M1827.33,234.06l.86,0v5c-.27.42-.56.46-.87,0C1827.32,237.39,1827.32,235.72,1827.33,234.06Z" transform="translate(-1075.38 169.88)"/><path class="cls-16" d="M1827.32,239.06c.29,0,.58,0,.87,0v5l-.85,0C1827.34,242.39,1827.33,240.72,1827.32,239.06Z" transform="translate(-1075.38 169.88)"/><path class="cls-17" d="M1433.29,597.93a6,6,0,0,0,0-.85c1.73,0,3.61-.89,5,.85Z" transform="translate(-1075.38 169.88)"/><path class="cls-18" d="M1468.28,597.93c1.67-1.45,3.33-1.55,5,0Z" transform="translate(-1075.38 169.88)"/></svg>