<svg width="220" height="30" viewBox="0 0 220 30" fill="none" xmlns="http://www.w3.org/2000/svg">
<path d="M9.072 28.56V2.73H6.09C4.606 2.73 3.43 3.108 2.562 3.864C1.694 4.592 1.26 5.894 1.26 7.77H0V4.2C0 3.64 0.098 3.108 0.294 2.604C0.49 2.072 0.84 1.652 1.344 1.344C1.876 1.008 2.618 0.839999 3.57 0.839999H23.31V2.73H14.532V28.56H9.072Z" fill="#3397CF"/>
<path d="M37.2186 29.4C34.4466 29.4 32.0106 28.756 29.9106 27.468C27.8386 26.152 26.2286 24.388 25.0806 22.176C23.9326 19.964 23.3586 17.472 23.3586 14.7C23.3586 11.928 23.9326 9.436 25.0806 7.224C26.2286 5.012 27.8386 3.262 29.9106 1.974C32.0106 0.658 34.4466 0 37.2186 0C40.0186 0 42.4406 0.658 44.4846 1.974C46.5566 3.262 48.1666 5.012 49.3146 7.224C50.4626 9.436 51.0366 11.928 51.0366 14.7C51.0366 17.472 50.4626 19.964 49.3146 22.176C48.1666 24.388 46.5566 26.152 44.4846 27.468C42.4406 28.756 40.0186 29.4 37.2186 29.4ZM37.2186 27.51C38.9266 27.51 40.3686 27.02 41.5446 26.04C42.7486 25.032 43.6586 23.576 44.2746 21.672C44.9186 19.74 45.2406 17.416 45.2406 14.7C45.2406 11.956 44.9186 9.632 44.2746 7.728C43.6586 5.824 42.7486 4.382 41.5446 3.402C40.3686 2.394 38.9266 1.89 37.2186 1.89C35.5386 1.89 34.0966 2.394 32.8926 3.402C31.7166 4.382 30.8066 5.824 30.1626 7.728C29.5466 9.632 29.2386 11.956 29.2386 14.7C29.2386 17.416 29.5466 19.74 30.1626 21.672C30.8066 23.576 31.7166 25.032 32.8926 26.04C34.0966 27.02 35.5386 27.51 37.2186 27.51Z" fill="#3397CF"/>
<path d="M67.0973 28.56V6.3C67.0973 5.04 66.9153 4.032 66.5513 3.276C66.2153 2.492 65.4173 2.1 64.1573 2.1H63.7373V0.839999H75.1613C80.9293 0.839999 85.2553 2.058 88.1393 4.494C91.0513 6.93 92.5073 10.276 92.5073 14.532C92.5073 17.304 91.8773 19.74 90.6173 21.84C89.3853 23.94 87.5653 25.592 85.1573 26.796C82.7493 27.972 79.7813 28.56 76.2533 28.56H67.0973ZM76.1273 26.88C78.0873 26.88 79.8233 26.39 81.3353 25.41C82.8473 24.43 84.0373 23.03 84.9053 21.21C85.7733 19.39 86.2073 17.22 86.2073 14.7C86.2073 12.236 85.7733 10.094 84.9053 8.274C84.0653 6.454 82.8753 5.04 81.3353 4.032C79.8233 3.024 78.0593 2.52 76.0433 2.52C75.4273 2.52 74.8953 2.534 74.4473 2.562C73.9993 2.59 73.3693 2.674 72.5573 2.814V26.586C73.1733 26.698 73.6493 26.782 73.9853 26.838C74.3493 26.866 74.6853 26.88 74.9933 26.88C75.3013 26.88 75.6793 26.88 76.1273 26.88Z" fill="#3397CF"/>
<path d="M109.447 29.4C106.675 29.4 104.239 28.756 102.139 27.468C100.067 26.152 98.4571 24.388 97.3091 22.176C96.1611 19.964 95.5871 17.472 95.5871 14.7C95.5871 11.928 96.1611 9.436 97.3091 7.224C98.4571 5.012 100.067 3.262 102.139 1.974C104.239 0.658 106.675 0 109.447 0C112.247 0 114.669 0.658 116.713 1.974C118.785 3.262 120.395 5.012 121.543 7.224C122.691 9.436 123.265 11.928 123.265 14.7C123.265 17.472 122.691 19.964 121.543 22.176C120.395 24.388 118.785 26.152 116.713 27.468C114.669 28.756 112.247 29.4 109.447 29.4ZM109.447 27.51C111.155 27.51 112.597 27.02 113.773 26.04C114.977 25.032 115.887 23.576 116.503 21.672C117.147 19.74 117.469 17.416 117.469 14.7C117.469 11.956 117.147 9.632 116.503 7.728C115.887 5.824 114.977 4.382 113.773 3.402C112.597 2.394 111.155 1.89 109.447 1.89C107.767 1.89 106.325 2.394 105.121 3.402C103.945 4.382 103.035 5.824 102.391 7.728C101.775 9.632 101.467 11.956 101.467 14.7C101.467 17.416 101.775 19.74 102.391 21.672C103.035 23.576 103.945 25.032 105.121 26.04C106.325 27.02 107.767 27.51 109.447 27.51Z" fill="#3397CF"/>
<path d="M139.326 28.56V6.3C139.326 5.04 139.144 4.032 138.78 3.276C138.444 2.492 137.646 2.1 136.386 2.1H135.966V0.839999H141.006C141.986 0.839999 142.742 1.008 143.274 1.344C143.834 1.68 144.226 2.24 144.45 3.024C144.674 3.808 144.786 4.9 144.786 6.3V26.67H159.276V28.56H139.326Z" fill="#3397CF"/>
<path d="M165.854 28.56C164.874 28.56 164.104 28.406 163.544 28.098C163.012 27.762 162.634 27.202 162.41 26.418C162.186 25.606 162.074 24.5 162.074 23.1V0.839999H167.534V23.1C167.534 24.36 167.702 25.382 168.038 26.166C168.402 26.922 169.214 27.3 170.474 27.3H170.894V28.56H165.854Z" fill="#3397CF"/>
<path d="M182.978 29.274C181.83 29.274 180.696 29.162 179.576 28.938C178.456 28.714 177.434 28.392 176.51 27.972C175.586 27.524 174.844 26.992 174.284 26.376C173.752 25.732 173.486 25.018 173.486 24.234V19.32H174.662C175.11 22.232 176.006 24.304 177.35 25.536C178.722 26.768 180.584 27.384 182.936 27.384C184 27.384 184.924 27.23 185.708 26.922C186.52 26.614 187.136 26.166 187.556 25.578C188.004 24.962 188.228 24.206 188.228 23.31C188.228 22.106 187.836 21.112 187.052 20.328C186.296 19.516 185.246 18.704 183.902 17.892L178.736 14.784C176.832 13.664 175.488 12.516 174.704 11.34C173.92 10.164 173.528 8.806 173.528 7.266C173.528 5.054 174.368 3.304 176.048 2.016C177.756 0.728 180.052 0.0839987 182.936 0.0839987C184.084 0.0839987 185.218 0.196 186.338 0.42C187.458 0.643999 188.48 0.979999 189.404 1.428C190.328 1.848 191.056 2.366 191.588 2.982C192.148 3.598 192.428 4.312 192.428 5.124V10.038H191.252C190.776 7.126 189.88 5.054 188.564 3.822C187.248 2.59 185.526 1.974 183.398 1.974C182.39 1.974 181.508 2.142 180.752 2.478C180.024 2.814 179.464 3.29 179.072 3.906C178.68 4.494 178.484 5.208 178.484 6.048C178.484 7.224 178.876 8.176 179.66 8.904C180.472 9.632 181.536 10.388 182.852 11.172L188.018 14.238C189.922 15.358 191.308 16.464 192.176 17.556C193.072 18.62 193.52 19.922 193.52 21.462C193.52 23.87 192.61 25.774 190.79 27.174C188.97 28.574 186.366 29.274 182.978 29.274Z" fill="#3397CF"/>
<path d="M204.799 28.56V2.73H201.817C200.333 2.73 199.157 3.108 198.289 3.864C197.421 4.592 196.987 5.894 196.987 7.77H195.727V4.2C195.727 3.64 195.825 3.108 196.021 2.604C196.217 2.072 196.567 1.652 197.071 1.344C197.603 1.008 198.345 0.839999 199.297 0.839999H219.037V2.73H210.259V28.56H204.799Z" fill="#3397CF"/>
</svg>
