<svg width="600" height="84" viewBox="0 0 600 84" fill="none" xmlns="http://www.w3.org/2000/svg">
<path d="M557.858 30.28C561.266 30.28 564.266 31.024 566.858 32.512C569.498 34 571.562 36.16 573.05 38.992C574.538 41.776 575.282 45.112 575.282 49C575.282 52.888 574.538 56.248 573.05 59.08C571.562 61.864 569.498 64 566.858 65.488C564.266 66.976 561.266 67.72 557.858 67.72C554.498 67.72 551.498 66.976 548.858 65.488C546.218 64 544.154 61.864 542.666 59.08C541.178 56.248 540.434 52.888 540.434 49C540.434 45.112 541.178 41.776 542.666 38.992C544.154 36.16 546.218 34 548.858 32.512C551.498 31.024 554.498 30.28 557.858 30.28ZM557.858 35.248C555.41 35.248 553.322 35.8 551.594 36.904C549.866 38.008 548.522 39.592 547.562 41.656C546.65 43.672 546.194 46.12 546.194 49C546.194 51.832 546.65 54.28 547.562 56.344C548.522 58.408 549.866 59.992 551.594 61.096C553.322 62.2 555.41 62.752 557.858 62.752C560.306 62.752 562.394 62.2 564.122 61.096C565.85 59.992 567.17 58.408 568.082 56.344C569.042 54.28 569.522 51.832 569.522 49C569.522 46.12 569.042 43.672 568.082 41.656C567.17 39.592 565.85 38.008 564.122 36.904C562.394 35.8 560.306 35.248 557.858 35.248Z" fill="#3D3839"/>
<path d="M511.853 67.72C508.877 67.72 506.141 66.976 503.645 65.488C501.149 64 499.157 61.864 497.669 59.08C496.181 56.248 495.437 52.888 495.437 49C495.437 45.016 496.229 41.632 497.813 38.848C499.397 36.064 501.485 33.952 504.077 32.512C506.669 31.024 509.453 30.28 512.429 30.28C515.405 30.28 517.973 31.048 520.133 32.584C522.341 34.12 523.805 36.16 524.525 38.704L523.805 39.208V14.44H529.565V67H524.525L524.021 58.288L524.813 57.856C524.477 59.968 523.661 61.768 522.365 63.256C521.117 64.696 519.557 65.8 517.685 66.568C515.861 67.336 513.917 67.72 511.853 67.72ZM512.429 62.68C514.733 62.68 516.725 62.104 518.405 60.952C520.133 59.8 521.453 58.168 522.365 56.056C523.325 53.896 523.805 51.376 523.805 48.496C523.805 45.76 523.325 43.408 522.365 41.44C521.453 39.472 520.157 37.96 518.477 36.904C516.845 35.848 514.925 35.32 512.717 35.32C509.069 35.32 506.237 36.568 504.221 39.064C502.205 41.56 501.197 44.872 501.197 49C501.197 53.128 502.181 56.44 504.149 58.936C506.117 61.432 508.877 62.68 512.429 62.68Z" fill="#3D3839"/>
<path d="M469.545 30.28C472.953 30.28 475.953 31.024 478.545 32.512C481.185 34 483.249 36.16 484.737 38.992C486.225 41.776 486.969 45.112 486.969 49C486.969 52.888 486.225 56.248 484.737 59.08C483.249 61.864 481.185 64 478.545 65.488C475.953 66.976 472.953 67.72 469.545 67.72C466.185 67.72 463.185 66.976 460.545 65.488C457.905 64 455.841 61.864 454.353 59.08C452.865 56.248 452.121 52.888 452.121 49C452.121 45.112 452.865 41.776 454.353 38.992C455.841 36.16 457.905 34 460.545 32.512C463.185 31.024 466.185 30.28 469.545 30.28ZM469.545 35.248C467.097 35.248 465.009 35.8 463.281 36.904C461.553 38.008 460.209 39.592 459.249 41.656C458.337 43.672 457.881 46.12 457.881 49C457.881 51.832 458.337 54.28 459.249 56.344C460.209 58.408 461.553 59.992 463.281 61.096C465.009 62.2 467.097 62.752 469.545 62.752C471.993 62.752 474.081 62.2 475.809 61.096C477.537 59.992 478.857 58.408 479.769 56.344C480.729 54.28 481.209 51.832 481.209 49C481.209 46.12 480.729 43.672 479.769 41.656C478.857 39.592 477.537 38.008 475.809 36.904C474.081 35.8 471.993 35.248 469.545 35.248Z" fill="#3D3839"/>
<path d="M453.621 19.48V24.88H437.061V67H431.302V24.88H414.741V19.48H453.621Z" fill="#3D3839"/>
<path d="M416.171 31L399.251 73.048C398.339 75.4 397.331 77.248 396.227 78.592C395.171 79.984 393.971 80.968 392.627 81.544C391.331 82.168 389.819 82.48 388.091 82.48C386.459 82.48 384.947 82.24 383.555 81.76C382.211 81.328 381.011 80.728 379.955 79.96L381.539 74.92C382.499 75.784 383.507 76.408 384.563 76.792C385.667 77.224 386.747 77.44 387.803 77.44C389.051 77.44 390.227 77.056 391.331 76.288C392.435 75.52 393.443 73.96 394.355 71.608L396.227 66.928L392.627 58.36L381.179 31H387.731L396.731 54.472L398.963 60.88L401.555 53.752L409.979 31H416.171Z" fill="#3D3839"/>
<path d="M368.931 43.744C368.931 41.056 368.211 38.992 366.771 37.552C365.331 36.064 363.291 35.32 360.651 35.32C358.155 35.32 356.043 35.872 354.315 36.976C352.587 38.032 351.315 39.76 350.499 42.16L345.819 39.28C346.779 36.592 348.555 34.432 351.147 32.8C353.739 31.12 356.955 30.28 360.795 30.28C363.387 30.28 365.739 30.736 367.851 31.648C369.963 32.512 371.619 33.856 372.819 35.68C374.067 37.456 374.691 39.76 374.691 42.592V60.016C374.691 61.744 375.603 62.608 377.427 62.608C378.339 62.608 379.227 62.488 380.091 62.248L379.803 66.784C378.843 67.264 377.595 67.504 376.059 67.504C374.667 67.504 373.419 67.24 372.315 66.712C371.211 66.184 370.347 65.392 369.723 64.336C369.099 63.232 368.787 61.864 368.787 60.232V59.512L370.227 59.728C369.651 61.6 368.667 63.136 367.275 64.336C365.883 65.488 364.323 66.352 362.595 66.928C360.867 67.456 359.163 67.72 357.483 67.72C355.371 67.72 353.403 67.36 351.579 66.64C349.755 65.92 348.291 64.84 347.187 63.4C346.131 61.912 345.603 60.088 345.603 57.928C345.603 55.24 346.491 53.032 348.267 51.304C350.091 49.528 352.611 48.328 355.827 47.704L370.083 44.896V49.648L358.491 52.024C356.139 52.504 354.387 53.176 353.235 54.04C352.083 54.904 351.507 56.104 351.507 57.64C351.507 59.128 352.083 60.352 353.235 61.312C354.435 62.224 356.115 62.68 358.275 62.68C359.667 62.68 360.987 62.512 362.235 62.176C363.531 61.792 364.683 61.24 365.691 60.52C366.699 59.752 367.491 58.816 368.067 57.712C368.643 56.56 368.931 55.216 368.931 53.68V43.744Z" fill="#3D3839"/>
<path d="M316.806 67.72C313.83 67.72 311.094 66.976 308.598 65.488C306.102 64 304.11 61.864 302.622 59.08C301.134 56.248 300.39 52.888 300.39 49C300.39 45.016 301.182 41.632 302.766 38.848C304.35 36.064 306.438 33.952 309.03 32.512C311.622 31.024 314.406 30.28 317.382 30.28C320.358 30.28 322.926 31.048 325.086 32.584C327.294 34.12 328.758 36.16 329.478 38.704L328.758 39.208V14.44H334.518V67H329.478L328.974 58.288L329.766 57.856C329.43 59.968 328.614 61.768 327.318 63.256C326.07 64.696 324.51 65.8 322.638 66.568C320.814 67.336 318.87 67.72 316.806 67.72ZM317.382 62.68C319.686 62.68 321.678 62.104 323.358 60.952C325.086 59.8 326.406 58.168 327.318 56.056C328.278 53.896 328.758 51.376 328.758 48.496C328.758 45.76 328.278 43.408 327.318 41.44C326.406 39.472 325.11 37.96 323.43 36.904C321.798 35.848 319.878 35.32 317.67 35.32C314.022 35.32 311.19 36.568 309.174 39.064C307.158 41.56 306.15 44.872 306.15 49C306.15 53.128 307.134 56.44 309.102 58.936C311.07 61.432 313.83 62.68 317.382 62.68Z" fill="#3D3839"/>
<path d="M295.233 31L278.313 73.048C277.401 75.4 276.393 77.248 275.289 78.592C274.233 79.984 273.033 80.968 271.689 81.544C270.393 82.168 268.881 82.48 267.153 82.48C265.521 82.48 264.009 82.24 262.617 81.76C261.273 81.328 260.073 80.728 259.017 79.96L260.601 74.92C261.561 75.784 262.569 76.408 263.625 76.792C264.729 77.224 265.809 77.44 266.865 77.44C268.113 77.44 269.289 77.056 270.393 76.288C271.497 75.52 272.505 73.96 273.417 71.608L275.289 66.928L271.689 58.36L260.241 31H266.793L275.793 54.472L278.025 60.88L280.617 53.752L289.041 31H295.233Z" fill="#3D3839"/>
<path d="M236.251 67V31H240.931L241.723 36.904C242.731 34.696 244.195 33.04 246.115 31.936C248.083 30.832 250.459 30.28 253.243 30.28C253.867 30.28 254.539 30.328 255.259 30.424C256.027 30.52 256.675 30.712 257.203 31L256.195 36.256C255.667 36.064 255.091 35.92 254.467 35.824C253.843 35.728 252.955 35.68 251.803 35.68C250.315 35.68 248.803 36.112 247.267 36.976C245.779 37.84 244.531 39.16 243.523 40.936C242.515 42.664 242.011 44.872 242.011 47.56V67H236.251Z" fill="#3D3839"/>
<path d="M209.744 67.72C206.336 67.72 203.288 66.976 200.6 65.488C197.96 64 195.896 61.864 194.408 59.08C192.92 56.248 192.176 52.888 192.176 49C192.176 45.112 192.92 41.776 194.408 38.992C195.896 36.16 197.936 34 200.528 32.512C203.12 31.024 206.072 30.28 209.384 30.28C212.744 30.28 215.6 31 217.952 32.44C220.352 33.88 222.176 35.848 223.424 38.344C224.672 40.792 225.296 43.552 225.296 46.624C225.296 47.44 225.272 48.184 225.224 48.856C225.176 49.528 225.104 50.128 225.008 50.656H195.92V45.544H222.488L219.536 46.12C219.536 42.664 218.576 40 216.656 38.128C214.784 36.256 212.312 35.32 209.24 35.32C206.888 35.32 204.848 35.872 203.12 36.976C201.44 38.032 200.12 39.592 199.16 41.656C198.248 43.672 197.792 46.12 197.792 49C197.792 51.832 198.272 54.28 199.232 56.344C200.192 58.408 201.536 59.992 203.264 61.096C205.04 62.152 207.152 62.68 209.6 62.68C212.24 62.68 214.376 62.176 216.008 61.168C217.688 60.16 219.032 58.792 220.04 57.064L224.576 59.728C223.664 61.36 222.488 62.776 221.048 63.976C219.656 65.176 218 66.112 216.08 66.784C214.208 67.408 212.096 67.72 209.744 67.72Z" fill="#3D3839"/>
<path d="M181.122 31H187.17L172.194 67H166.434L151.458 31H158.01L169.386 61.168L181.122 31Z" fill="#3D3839"/>
<path d="M114.776 67V19.48H148.112V24.88H120.536V40.216H141.992V45.616H120.536V61.6H149.192V67H114.776Z" fill="#3D3839"/>
<path d="M80.4948 32.0474C80.4851 31.8407 80.7766 31.7876 80.843 31.9846C82.5925 37.1702 84.8512 61.06 84.5993 63.9633C84.2798 67.6434 84.2024 71.0423 80.9174 71.3521C80.6765 71.3747 80.3448 71.4277 80.2704 71.1216C79.9881 69.9581 83.431 72.1454 83.4883 63.3486C83.5639 51.6632 80.6924 36.1769 80.4948 32.048V32.0474Z" fill="#3D3839"/>
<path d="M79.4369 40.7394C79.4668 40.4265 79.9143 40.4089 79.965 40.7192C80.7138 45.3079 82.1992 62.4345 80.5766 68.3849C79.9814 70.5673 77.9441 71.3222 75.6909 71.1295C75.4818 71.1118 75.2311 71.1021 75.2257 70.8191C75.2208 70.5606 75.4604 70.5569 75.6428 70.5405C81.801 69.9819 80.0333 63.2279 79.8436 47.3318C79.8131 44.7695 79.2759 42.4181 79.4363 40.7387L79.4369 40.7394Z" fill="#3D3839"/>
<path d="M63.786 38.9014C72.6011 39.5362 72.8908 39.4283 72.7883 40.3601C72.5566 42.4681 72.0779 44.5359 71.7749 46.6318C71.6895 47.222 71.7395 47.2745 62.5591 46.2196C61.3852 46.0848 61.8273 46.1866 62.8506 39.707C62.9652 38.9795 63.0609 38.849 63.786 38.9014ZM70.2339 46.0744C70.9199 46.2763 70.7047 46.1214 71.6438 40.9833C71.7511 40.396 72.1041 40.607 65.133 40.0466C64.7373 40.0149 64.2793 39.8515 63.9579 39.9936C63.5219 40.1869 63.775 40.7516 63.6854 41.1449C63.4073 42.3693 63.2061 43.6109 62.9817 44.8481C62.8597 45.5213 62.2847 45.2262 70.2339 46.075V46.0744Z" fill="#3D3839"/>
<path d="M69.8333 54.6798C69.8192 54.6786 61.1486 53.8121 61.0413 53.8072C60.1144 53.7639 60.3894 53.6395 61.2456 48.8026C61.484 47.4574 61.2998 46.7757 62.3536 46.9818C63.3536 47.1775 69.2668 47.8379 70.7156 47.8605C71.9047 47.8794 71.4675 47.9392 70.5126 54.0261C70.4345 54.5231 70.2882 54.8091 69.8333 54.6792V54.6798ZM69.0741 53.7669C69.5686 53.7041 69.3595 53.8328 70.1808 49.0642C70.2619 48.5953 70.6296 48.8215 62.7706 47.9953C62.2535 47.941 62.4694 48.0459 61.7328 51.7906C61.5212 52.8675 61.5035 52.909 62.5865 53.045C64.7061 53.3114 66.8331 53.5218 69.0735 53.7676L69.0741 53.7669Z" fill="#3D3839"/>
<path d="M61.3437 39.16C61.0327 40.3717 60.3327 44.7567 60.2681 45.3043C60.1644 46.1866 60.1296 45.9622 53.636 45.2994C50.9303 45.0232 50.5529 45.1823 50.7535 44.1572C51.9432 38.0831 50.8901 43.2438 52.0158 38.0941C52.0822 37.7892 52.0274 37.8453 57.2862 38.3136C61.5224 38.6905 61.4968 38.5648 61.3437 39.1606V39.16ZM59.3229 44.65C59.6314 43.0938 59.9309 41.537 60.2595 39.9851C60.3443 39.5856 60.3278 39.6253 58.2722 39.4393C52.542 38.9197 52.6176 38.7801 52.5316 39.2942C51.7249 44.1152 51.4676 44.1176 52.1786 44.1835C59.3064 44.8457 59.2442 45.0457 59.3223 44.65H59.3229Z" fill="#3D3839"/>
<path d="M48.4515 44.753C48.4375 44.7518 40.3681 43.9133 40.0846 43.8627C39.3833 43.7371 39.5907 43.7993 40.6749 38.4423C40.8048 37.802 40.6688 36.8977 41.7615 36.991C50.1968 37.7099 50.3834 37.3733 50.0998 38.4008C48.565 43.953 49.4729 44.8646 48.4521 44.753H48.4515ZM42.3176 38.0557C41.4841 37.7947 41.7255 38.327 40.9901 41.9431C40.7822 42.9657 40.7621 42.9974 41.7518 43.1096C43.6897 43.3285 45.6325 43.4987 47.5728 43.6999C48.2412 43.7688 47.9741 43.7517 48.9461 39.1002C49.0857 38.4307 49.4894 38.6691 42.3176 38.0563V38.0557Z" fill="#3D3839"/>
<path d="M60.7778 54.7841C61.5102 54.9518 68.3807 55.7847 69.3076 55.8006C70.4967 55.8201 70.1247 55.9482 69.146 61.715C69.0801 62.1022 68.9558 62.3126 68.5069 62.2284C65.9513 61.7473 63.3499 61.6137 60.7791 61.2436C59.1034 61.0021 59.0363 61.1576 59.3381 59.5136C60.1662 54.9987 59.9534 54.6682 60.7778 54.7841ZM68.86 56.611C60.9785 55.8305 61.0419 55.6329 60.9596 56.1421C60.4126 59.5289 60.1065 59.7856 60.315 60.1149C60.5071 60.4173 60.3376 60.1935 67.4148 61.1058C68.3161 61.2223 68.0728 61.154 68.86 56.611Z" fill="#3D3839"/>
<path d="M49.9998 52.6583C48.4967 52.5339 49.5967 51.9735 50.2395 46.5342C50.3669 45.4561 50.4919 45.7762 57.535 46.5403C61.0071 46.9172 59.8333 46.0866 58.8162 53.0108C58.6662 54.031 58.7442 53.3828 50.0004 52.6577L49.9998 52.6583ZM57.3868 52.5211C57.9844 52.7181 57.8021 52.4053 58.5369 48.7978C58.8003 47.5056 58.8095 47.5977 57.1624 47.4257C51.1419 46.797 51.2102 46.6531 51.123 47.191C50.3998 51.6632 49.9974 51.7693 50.8005 51.8485C52.9908 52.065 55.1782 52.2937 57.3874 52.5205L57.3868 52.5211Z" fill="#3D3839"/>
<path d="M48.6222 46.0391C47.4289 51.9754 47.6716 52.7888 46.4587 52.3784C45.7855 52.1504 40.0913 51.5156 38.8784 51.4961C38.4235 51.4888 38.1747 51.2235 38.2747 50.707C39.3473 45.1536 39.1357 44.5713 40.2577 44.7018C49.0339 45.7201 48.746 45.4244 48.6222 46.0397V46.0391ZM45.9794 51.3211C46.6654 51.5455 46.4075 51.4857 47.3813 46.783C47.5112 46.1574 47.6289 46.4958 40.7584 45.6909C39.9272 45.5933 40.3333 46.0043 39.3839 50.1051C39.201 50.8954 39.1101 50.6625 45.9794 51.3205V51.3211Z" fill="#3D3839"/>
<path d="M37.9046 44.9042C36.7112 50.8406 36.9539 51.654 35.7411 51.2436C35.0678 51.0156 29.3736 50.3808 28.1607 50.3613C27.7058 50.3539 27.457 50.0887 27.557 49.5722C28.6297 44.0188 28.4181 43.4365 29.5401 43.567C38.3162 44.5853 38.0284 44.2896 37.9046 44.9048V44.9042ZM35.2618 50.1862C35.9478 50.4107 35.6898 50.3509 36.6637 45.6482C36.7929 45.0225 36.9112 45.361 30.0407 44.556C29.2096 44.4585 29.6157 44.8695 28.6663 48.9703C28.4833 49.7606 28.3925 49.5277 35.2618 50.1856V50.1862Z" fill="#3D3839"/>
<path d="M56.8502 60.7735C48.8589 59.799 49.1626 59.7905 48.4229 59.8393C47.424 59.9051 47.9466 59.5063 48.8589 54.2005C49.0339 53.1828 49.0723 53.5407 57.6496 54.5335C58.4655 54.628 58.4729 54.6268 58.3241 55.4048C57.3765 60.3673 57.4582 61.0046 56.8502 60.7735ZM56.1617 59.746C56.6331 59.8496 56.4532 59.5392 57.1819 56.0037C57.3374 55.25 57.0069 55.4116 55.2605 55.2207C49.6608 54.6091 49.7431 54.4517 49.6461 55.0835C49.0869 58.7111 48.7156 58.874 49.326 58.9441C51.5749 59.2026 53.8244 59.4697 56.1624 59.746H56.1617Z" fill="#3D3839"/>
<path d="M37.6717 43.5956C30.1706 42.7645 30.5792 42.7633 29.8761 42.8065C28.7791 42.8736 29.1736 42.4498 30.4737 36.7166C30.7036 35.7043 30.5786 36.1318 39.0376 36.7403C39.8077 36.7958 39.6474 36.8385 38.8595 41.0565C38.4272 43.3724 38.4558 43.7511 37.6717 43.5956ZM36.9253 42.6187C37.5607 42.8334 37.3716 42.6565 38.3778 38.1075C38.4876 37.6117 38.4674 37.6758 35.8917 37.4544C33.0811 37.2129 31.1798 36.9147 31.1018 37.3837C30.3231 42.0419 30.0968 42.0126 30.609 42.0553C32.736 42.2321 34.8605 42.4321 36.9259 42.6187H36.9253Z" fill="#3D3839"/>
<path d="M58.4277 68.5666C57.6509 68.5038 57.8563 68.4995 58.5838 63.8004C58.7198 62.9217 59.2357 62.5235 60.1309 62.6016C62.7329 62.8278 65.3257 63.1224 67.8929 63.6181C69.0741 63.8462 68.7131 63.6346 67.7923 68.7861C67.5185 70.3167 67.4289 69.2965 58.4277 68.5666ZM66.3623 68.6891C66.9282 68.9465 66.83 68.5556 67.2917 65.6591C67.3575 65.2469 67.6087 64.742 67.4545 64.4486C67.2557 64.0712 66.655 64.2547 66.2355 64.195C59.604 63.2559 59.6693 63.1663 59.5717 63.7535C58.9503 67.5074 58.4924 67.6385 59.365 67.7531L66.3629 68.6885L66.3623 68.6891Z" fill="#3D3839"/>
<path d="M46.2971 53.2736C47.1508 53.3492 47.16 53.3578 46.9856 54.1938C46.6819 55.6475 46.3947 57.1037 46.0965 58.5587C45.8544 59.7398 46.0861 59.4581 38.3625 58.4904C36.4209 58.2471 36.8838 58.6319 37.8302 52.9224C37.993 51.94 37.9308 52.5291 46.2965 53.273L46.2971 53.2736ZM37.9417 57.4397C37.8484 57.7269 37.546 57.5147 44.7324 58.3977C45.2971 58.4672 45.0751 58.4142 45.8556 54.5255C45.9556 54.0285 46.1733 54.2956 39.0888 53.4675C38.5704 53.4072 38.743 53.3681 37.9411 57.4391L37.9417 57.4397Z" fill="#3D3839"/>
<path d="M34.2483 59.3282C35.5593 59.4661 35.0416 59.3764 33.8952 65.2225C33.769 65.8658 33.8647 65.5981 25.4844 64.5365C24.452 64.4054 24.8825 64.0645 25.8966 58.5843C26.0088 57.9788 26.1576 58.4782 34.2483 59.3282ZM32.7543 64.3895C33.4354 64.6255 33.1562 63.4907 33.883 60.5753C34.0684 59.8325 34.1495 60.121 27.1729 59.1886C26.5869 59.1099 26.8186 59.0849 25.9021 63.2382C25.7899 63.7474 25.4331 63.537 32.7549 64.3895H32.7543Z" fill="#3D3839"/>
<path d="M44.4787 66.4683C44.3702 67.1116 44.4495 66.8634 35.9136 65.8835C35.4434 65.8292 35.3038 65.6707 35.4544 65.1597C36.635 61.171 35.9282 59.4679 37.2625 59.7051C48.0003 61.6143 45.8386 58.3867 44.4781 66.4683H44.4787ZM44.4671 61.8034C44.5806 61.2271 44.6836 61.4698 37.6911 60.549C37.1753 60.4814 37.4314 60.4868 36.5197 64.4298C36.3843 65.0145 36.6222 64.8657 38.1881 65.0676C43.8104 65.7926 43.7695 65.9134 43.8317 65.5176C44.0263 64.2767 44.2244 63.0352 44.4671 61.8034Z" fill="#3D3839"/>
<path d="M48.2778 61.0631C56.3044 62.0589 53.4067 61.7198 56.2996 62.101C57.3905 62.2449 56.9661 62.179 55.8227 67.6976C55.666 68.4532 55.7581 68.233 49.2687 67.4805C47.1606 67.236 46.6081 67.3433 46.7191 66.511C47.4747 60.8448 47.5448 61.0363 48.2778 61.0631ZM48.7668 61.9686C48.3265 61.8388 48.39 62.0443 47.8515 64.7023C47.7521 65.1926 47.4308 65.8384 47.6283 66.1384C47.8631 66.4951 48.5772 66.3634 49.0882 66.4183C49.101 66.4195 51.1157 66.7055 54.6385 67.1372C55.4111 67.2318 55.2068 67.3488 55.6587 64.395C55.7318 63.9181 55.9971 63.3279 55.8099 62.9931C55.5794 62.5803 54.8946 62.7937 54.4117 62.7028C53.9689 62.6199 54.3879 62.679 48.7668 61.9693V61.9686Z" fill="#3D3839"/>
<path fill-rule="evenodd" clip-rule="evenodd" d="M84.3524 27.1276C88.4459 30.029 91.8175 58.4001 91.9791 63.6858L91.9797 63.6864L91.9858 63.6852C92.0565 66.0012 91.9327 69.305 89.9838 70.5606C89.0393 71.1692 87.9502 71.5722 86.7702 71.4735C86.6507 71.4637 86.5227 71.471 86.394 71.4783C86.1013 71.4954 85.8074 71.5125 85.6116 71.321C85.325 71.0405 85.794 70.0368 86.0525 69.4819C86.1178 69.3422 86.1696 69.2313 86.1928 69.1672C87.1544 66.5213 87.3093 64.5505 87.0751 61.854C86.841 59.1575 85.9403 49.624 84.678 43.5352C81.448 27.9569 81.0626 27.7593 79.268 26.8392C78.9027 26.6513 78.4783 26.4337 77.96 26.0501C76.9739 25.3202 78.6204 25.1635 79.7741 25.4232C81.5797 25.8293 80.0704 18.8308 73.842 19.4204C73.203 19.4814 73.3505 19.6546 73.7268 20.0991C74.2604 20.7291 75.2555 21.9041 75.1256 24.0731C75.1232 24.1097 75.1244 24.1494 75.1256 24.1896C75.1311 24.3793 75.1366 24.586 74.8128 24.5281C74.2055 24.4183 74.2024 24.2622 74.1939 23.8433C74.1823 23.3121 74.1628 22.3584 72.8926 20.5412C71.8559 19.0582 68.6991 22.0163 70.0229 25.4409L70.0754 25.5781C70.3589 26.3184 70.6309 27.0282 71.4943 27.2008C73.8128 27.6636 73.664 30.4272 71.7828 30.9796C70.2772 31.4217 68.6149 29.2515 69.9016 27.9246C70.1308 27.688 69.9674 27.4337 69.6979 27.0136C69.4851 26.6831 69.207 26.2495 69.0015 25.6409C68.9924 25.6141 68.9857 25.5909 68.9741 25.5708C68.8802 25.4068 68.4862 25.4147 64.3098 25.0384C64.2827 25.0353 64.2558 25.0307 64.2293 25.0244C64.1189 25.0013 64 24.9769 63.9567 25.1531C63.9317 25.2555 63.9957 25.3513 64.0902 25.3952C64.1878 25.4409 64.2549 25.5696 64.3366 25.7263C64.5049 26.0501 64.7354 26.4928 65.4245 26.5654C67.8795 26.8221 67.2148 31.0211 64.5458 30.1131C63.2219 29.6631 62.7816 28.2179 63.6543 27.1099C63.8274 26.8898 63.678 26.6995 63.5012 26.4757C63.3689 26.3074 63.2213 26.1202 63.1841 25.8867C63.0445 24.9988 62.52 24.8067 61.7054 24.7756C60.4619 24.7271 59.2206 24.6342 57.9838 24.497C56.5624 24.3476 56.2971 24.3201 56.6453 24.9433L56.7496 25.1324C57.1057 25.7824 57.4063 26.3306 58.2039 26.48C60.9212 26.9892 59.7345 31.2553 56.9331 29.9247C56.3447 29.6448 55.8898 28.7259 55.9977 28.0081C56.0703 27.5276 56.2185 27.3221 56.3264 27.1721C56.4953 26.9379 56.5654 26.841 56.0898 26.0464C55.902 25.733 55.7861 25.4135 55.6849 25.1336C55.5166 24.6677 55.3885 24.314 55.0355 24.289C53.9411 24.2101 52.8473 24.1233 51.7542 24.0286C49.0638 23.8 48.9375 23.789 49.3424 24.4671L49.3498 24.4793C49.687 25.0439 49.9815 25.5366 50.8011 25.6495C51.4627 25.7403 51.9963 26.3617 52.2408 27.0514C52.7786 28.5679 50.7608 29.7021 49.7595 29.2954C47.8094 28.5027 48.3399 26.6696 48.8253 26.4282C49.251 26.216 49.154 25.8531 48.9034 25.6336C48.4302 25.2196 48.2454 24.6781 48.0942 24.1195C48.0101 23.8097 47.9997 23.8097 46.7185 23.7817C46.0593 23.767 45.0629 23.7451 43.5464 23.6695C42.625 23.6237 43.6811 24.8336 44.3623 24.9141C47.11 25.2397 46.3258 29.6424 43.336 28.4368C42.5695 28.1277 42.0018 27.113 42.3725 26.2922C42.7402 25.4781 42.6902 24.8854 42.2323 24.1414C42.0067 23.7743 41.8853 23.642 41.4694 23.6548C39.6309 23.7109 38.4211 23.7189 37.6259 23.7243C36.127 23.7341 36.1033 23.7341 36.1246 24.0305C36.1496 24.3811 36.4362 24.7427 36.9643 24.811C39.7809 25.1738 39.1553 28.5746 36.935 28.5265C35.1471 28.4874 34.5611 26.4245 35.5557 25.3488C35.8508 25.0299 35.1636 24.1018 34.305 24.3238C32.4213 24.811 30.945 25.7714 30.0432 27.5959C29.4297 28.8374 28.9028 29.4186 29.0315 29.7271C29.2242 30.1906 30.8914 30.04 35.9539 30.5869C40.6224 31.0918 66.0757 33.1322 74.4659 33.8054C76.1117 33.9371 77.1008 34.0164 77.1483 34.0213C77.4386 34.0506 77.5002 33.9408 77.513 33.681C77.5886 32.162 77.602 30.6388 77.0404 29.2039C76.1056 26.8148 74.2969 26.4989 72.9889 26.2708C72.0608 26.108 71.3852 25.9903 71.4535 25.2067C71.4821 24.8775 71.8145 24.9238 72.0468 24.9567L72.1182 24.9659L72.5328 25.0147C73.2713 25.1 74.014 25.1854 74.7232 25.383C76.7788 25.9556 78.6167 27.9819 78.7984 30.3119C79.2716 36.3842 74.8439 66.0195 74.711 66.6244C73.8213 70.6819 71.4821 74.2626 67.2935 74.1224C67.0718 74.1166 66.85 74.1121 66.6282 74.109C63.4945 74.0553 51.1358 73.8425 41.2029 72.0345C39.6504 71.7521 38.3351 71.6113 36.9094 71.4594C34.1751 71.1673 31.0371 70.832 25.0514 69.3691C21.7969 68.5739 19.6468 65.8902 20.2889 61.3186C20.53 59.6313 20.8037 57.9487 21.1097 56.272C21.4628 56.3549 21.8805 56.4336 22.3744 56.5116C21.4213 61.3668 21.1573 64.1395 22.3665 65.9006C24.4861 68.9867 31.1316 68.9654 46.5301 71.5966C53.0372 72.7083 66.4843 73.0796 69.1015 72.6064C73.6603 71.7826 74.6488 61.5168 75.7598 49.9814C76.2099 45.3085 76.68 40.4278 77.4154 35.8818C77.441 35.7232 77.4636 35.6049 77.4246 35.5141C77.2605 35.1299 76.008 35.2104 69.3168 34.661L69.2503 34.6549C67.613 34.5018 36.1295 31.5596 29.6023 31.2327L29.6035 31.2333C28.2376 31.165 28.2119 31.2662 27.4589 34.278C26.7954 36.9689 26.0515 39.6394 25.2282 42.2858C24.9283 43.9283 24.6146 45.5683 24.2873 47.2056C23.8495 47.1585 23.4121 47.1079 22.9751 47.0537C24.0513 42.1974 25.2374 37.4727 26.249 34.0615L26.4009 33.5481C27.3607 30.2875 28.626 25.9928 31.5067 23.9823C32.3707 23.3786 33.0982 23.2383 33.6123 23.1383C34.2001 23.0243 34.5087 22.9645 34.4215 22.3304C33.9946 19.2113 36.1563 15.5629 41.1469 16.0428C42.2292 16.1465 42.9024 16.4684 43.3732 16.6941C43.7598 16.8788 44.0098 16.9983 44.2385 16.8788C47.0515 15.4092 49.2796 16.2648 50.5797 16.7642C51.0779 16.9557 51.4401 17.0947 51.6462 17.0301C54.3568 16.1806 56.1026 17.1563 57.2014 17.771C57.7265 18.0643 58.1039 18.2753 58.368 18.1649C60.4949 17.2764 62.5828 17.4429 64.6257 18.4551C64.8397 18.5612 65.1988 18.4307 65.7025 18.2478C66.9258 17.8033 69.0052 17.0471 71.9523 18.6167C72.2023 18.7503 72.5371 18.668 72.9883 18.557C73.6658 18.3905 74.6043 18.1594 75.9098 18.496C80.2955 19.6265 81.6498 22.8231 81.3278 25.3537C81.2687 25.8172 81.6187 25.9287 82.2303 26.1233C82.7688 26.294 83.5097 26.5306 84.3524 27.1276ZM37.5399 22.5883C37.865 22.5889 38.1894 22.5901 38.5138 22.5743C40.9176 22.456 41.528 22.559 41.6298 22.3773C41.7829 22.1054 40.8029 21.198 42.9671 17.9685C43.4616 17.2307 40.1029 16.2221 38.0485 17.4087C37.8985 17.4953 37.7436 17.5764 37.5887 17.6581C37.1088 17.9094 36.6277 18.1618 36.2886 18.5801C35.399 19.6778 35.0922 20.9486 35.3947 22.3523C35.4477 22.5999 35.5258 22.7255 35.8069 22.6792C36.3819 22.584 36.9606 22.5859 37.5399 22.5877V22.5883ZM45.7313 22.7017C47.871 22.8145 47.871 22.8145 47.8607 22.3804L47.8613 22.381C47.8155 20.4418 48.6948 18.9552 50.2559 17.6831C50.1736 17.6642 50.0486 17.6087 49.8845 17.5356C49.0772 17.177 47.3326 16.4026 45.1709 17.552C44.8349 17.7307 44.9337 17.8179 45.2099 18.0612C45.6538 18.4521 46.5557 19.246 46.8338 21.473C46.8374 21.5035 46.8441 21.537 46.8508 21.5724C46.8874 21.759 46.9319 21.9883 46.6179 21.9999C46.3453 22.0096 46.0386 21.923 46.0112 21.5773C45.9337 20.6101 45.3916 19.8906 44.8507 19.1716C44.7197 18.9999 44.5916 18.8258 44.4666 18.6497C44.2861 18.3929 44.1056 18.1856 43.7299 18.5338C42.6475 19.5375 42.3512 20.9974 42.5866 22.3048C42.6323 22.559 42.7847 22.5645 42.9579 22.5706L42.9963 22.5718C44.1665 22.62 45.0556 22.6664 45.7313 22.7017ZM51.5035 22.9591C52.3664 22.9889 53.4671 23.0267 54.8635 23.103C55.2532 23.1243 55.319 22.7779 55.4257 22.2176C55.566 21.4797 55.777 20.3705 56.8911 19.2412C57.1838 18.9448 57.1484 18.7735 56.8093 18.5728C55.4465 17.7673 53.9939 17.5929 52.4176 17.888C52.4652 18.0344 52.6274 18.26 52.8359 18.5484C53.3726 19.2918 54.2141 20.4577 54.194 21.8053C54.1933 21.8431 54.1976 21.8846 54.2013 21.9261C54.2177 22.0932 54.2348 22.2676 53.9543 22.2633C53.9094 22.263 53.8644 22.2643 53.8195 22.2669C53.586 22.2767 53.3287 22.2883 53.2811 21.9761C53.1036 20.8083 52.6256 19.8424 51.8249 18.9363C51.2365 18.2698 51.1596 18.3234 50.6986 18.6436C50.6401 18.6844 50.5761 18.7289 50.5035 18.7771C49.4077 19.5058 48.9857 20.6455 48.6637 21.8407C48.3918 22.8517 48.6363 22.8603 51.5035 22.9591ZM56.2197 23.028C56.3599 23.3085 57.2453 23.217 62.2292 23.5871L62.2286 23.5878C62.6109 23.6164 62.6316 23.3207 62.6676 22.795C62.717 22.0785 62.7963 20.9339 63.8652 19.5997C64.0159 19.4113 64.0531 19.3082 63.8073 19.1747C62.2121 18.31 60.6114 18.1606 58.9241 19.0863C59.8077 20.0272 60.1729 21.1004 60.3236 22.2639C60.3272 22.2913 60.3333 22.323 60.3406 22.356C60.376 22.5292 60.4211 22.7511 60.1358 22.7456L60.0888 22.745C59.837 22.7414 59.5272 22.7365 59.4863 22.3255C59.4125 21.5736 59.0064 20.9839 58.6009 20.3937C58.4777 20.2144 58.3545 20.0351 58.2405 19.8516C58.107 19.6363 57.9606 19.5985 57.7326 19.7735C56.7386 20.5357 56.2654 21.5486 56.1995 22.7816C56.1941 22.8877 56.1892 22.967 56.2197 23.028ZM66.3172 24.0914C66.9855 24.2219 67.6539 24.3518 68.332 24.4195L68.3314 24.4201C68.7619 24.4628 68.7753 24.1969 68.8015 23.6884C68.8466 22.8097 68.9296 21.2065 71.2754 19.229C70.8748 19.232 70.5614 19.0765 70.2583 18.9253C70.015 18.8046 69.7778 18.6863 69.5064 18.6564C68.4222 18.5362 67.3654 18.5015 66.3556 19.0826C65.9526 19.3143 65.9587 19.3979 66.241 19.7205C67.5283 21.1913 68.8265 24.3189 67.0758 23.3835C66.9435 23.3127 66.916 23.1682 66.8715 22.9328C66.7807 22.4529 66.6184 21.5968 65.347 20.2235C65.3255 20.1997 65.3045 20.1753 65.2842 20.1504C65.1482 19.99 64.9982 19.8125 64.7421 20.0699C63.2378 21.5803 63.0829 23.6939 63.7701 23.725C64.6324 23.764 65.4745 23.928 66.3172 24.0914Z" fill="#3D3839"/>
<path d="M22.3092 47.6001C24.3276 47.8885 30.8188 48.4739 31.5548 48.6301C34.1976 49.1905 34.2074 48.7538 34.1306 49.4106C33.7738 52.4644 33.1653 54.8005 32.8561 56.6354C32.7994 56.9732 32.7012 57.1751 32.289 57.1031C30.8353 56.8488 22.0976 56.0201 20.4987 55.4298C19.6285 55.1085 19.9822 55.0274 20.9048 50.4795C21.389 48.0928 21.2707 47.2672 22.3092 47.5995V47.6001Z" fill="#65C3C7"/>
</svg>
